<svg width="76" height="72" viewBox="0 0 76 72" fill="none" xmlns="http://www.w3.org/2000/svg">
<path id="Union" fill-rule="evenodd" clip-rule="evenodd" d="M75.6826 20.3523C75.6826 31.5661 66.592 40.6567 55.3782 40.6567C48.0894 40.6567 41.6976 36.8161 38.1161 31.0481C36.076 27.7626 32.8648 24.9723 28.9974 24.9723C26.4307 24.9723 23.1571 25.486 20.2859 28.3573C17.4146 31.2286 16.8186 34.6594 16.8186 37.6694C16.8186 41.9112 20.0825 45.3874 23.1411 48.3265C25.7216 50.8063 27.333 54.3261 27.333 58.2304C27.333 65.7393 21.3725 71.8266 14.02 71.8266C6.66745 71.8266 0.707031 65.7393 0.707031 58.2304C0.707031 54.3261 2.31836 50.8063 4.8989 48.3265C7.95747 45.3874 11.2214 41.9112 11.2214 37.6694C11.2214 33.5866 8.06991 30.2047 5.54878 26.9934C4.1127 25.1641 3.25631 22.8582 3.25631 20.3522C3.25631 14.4076 8.07538 9.58851 14.02 9.58852C16.2509 9.58852 18.3233 10.2672 20.042 11.4295C22.7456 13.2577 25.5917 15.3416 28.8555 15.3416C32.8793 15.3416 34.0587 14.8403 38.4616 9.11903C42.8644 3.39772 48.3181 0.0478516 55.3782 0.0478516C66.592 0.0478516 75.6826 9.13845 75.6826 20.3523ZM65.4855 20.3523C65.4855 25.9343 60.9603 30.4595 55.3782 30.4595C49.7961 30.4595 45.2709 25.9343 45.2709 20.3523C45.2709 14.7702 49.7961 10.245 55.3782 10.245C60.9603 10.245 65.4855 14.7702 65.4855 20.3523Z" fill="black"/>
</svg>
